<?xml version="1.0" standalone="no"?>
<!DOCTYPE svg PUBLIC "-//W3C//DTD SVG 20010904//EN"
 "http://www.w3.org/TR/2001/REC-SVG-20010904/DTD/svg10.dtd">
<svg version="1.0" xmlns="http://www.w3.org/2000/svg"
 width="700.000000pt" height="700.000000pt" viewBox="0 0 700.000000 700.000000"
 preserveAspectRatio="xMidYMid meet">
<metadata>
Created by potrace 1.14, written by Peter Selinger 2001-2017
</metadata>
<g transform="translate(0.000000,700.000000) scale(0.100000,-0.100000)"
fill="#000000" stroke="none">
<path d="M3448 6724 c-2 -1 -19 -6 -37 -9 -48 -8 -118 -46 -189 -103 -273
-219 -566 -535 -777 -836 -251 -360 -447 -787 -545 -1188 -17 -68 -33 -139
-36 -158 -3 -19 -11 -73 -19 -120 -13 -84 -19 -121 -30 -230 -6 -47 -13 -63
-62 -120 -30 -36 -62 -74 -71 -85 -145 -176 -209 -252 -217 -261 -5 -6 -28
-33 -50 -60 -22 -26 -67 -80 -100 -119 -33 -39 -78 -93 -100 -120 -22 -26 -80
-96 -129 -154 -164 -195 -182 -276 -121 -531 2 -8 11 -49 20 -90 9 -41 18 -82
20 -90 2 -8 40 -179 85 -380 44 -201 83 -376 86 -390 23 -111 106 -472 115
-500 30 -87 105 -168 199 -213 59 -29 74 -32 160 -32 87 0 101 3 160 32 36 17
74 40 85 50 11 10 54 43 95 73 41 30 82 60 90 67 8 7 139 106 290 220 l275
208 855 0 855 0 225 -170 c451 -343 565 -427 600 -445 77 -38 174 -48 274 -26
81 18 184 101 230 185 26 49 43 115 106 401 16 74 86 389 155 698 69 310 125
585 125 612 0 89 -47 199 -117 275 -10 11 -35 41 -56 67 -21 26 -43 53 -50 60
-7 7 -77 92 -157 188 -79 96 -147 177 -150 180 -3 3 -25 30 -50 60 -25 30 -96
116 -158 190 -62 74 -119 142 -127 151 -7 9 -18 61 -24 115 -17 147 -35 267
-52 344 -6 25 -13 56 -15 70 -49 253 -234 714 -393 979 -28 46 -51 86 -51 88
0 2 -5 9 -10 16 -6 7 -36 50 -67 97 -129 196 -312 419 -503 610 -215 215 -375
344 -465 375 -44 15 -168 29 -177 19z m98 -346 c16 -13 34 -27 40 -33 7 -5 41
-35 78 -65 148 -124 400 -395 543 -585 316 -421 543 -929 617 -1380 7 -47 25
-174 33 -240 15 -127 8 -491 -12 -645 -9 -68 -17 -120 -25 -165 -5 -27 -12
-66 -15 -85 -25 -150 -120 -465 -207 -680 -50 -125 -201 -440 -257 -535 l-29
-51 -811 1 -811 0 -15 21 c-28 41 -173 329 -225 449 -166 381 -266 757 -306
1145 -15 143 -7 572 11 640 2 8 7 36 9 61 37 323 194 767 389 1104 89 154 277
422 354 505 13 14 40 46 61 72 37 47 320 331 377 378 146 121 154 124 201 88z
m-1729 -2870 c1 -57 25 -229 49 -353 8 -44 18 -91 20 -105 3 -14 12 -52 21
-85 8 -33 16 -64 17 -70 7 -32 32 -113 61 -205 83 -257 171 -468 307 -733 l85
-165 -353 -266 c-194 -146 -360 -266 -369 -266 -45 0 -56 20 -81 146 -2 12
-18 82 -35 155 -17 74 -33 145 -35 159 -3 14 -21 95 -40 180 -20 85 -38 166
-40 179 -3 13 -30 135 -60 270 -31 135 -57 255 -60 266 -2 11 -6 31 -9 45 -3
14 -8 36 -11 50 -26 122 -27 137 -13 157 17 23 71 90 154 187 33 39 83 98 110
131 27 33 54 65 60 71 5 6 57 68 115 138 57 69 105 126 106 126 0 0 1 -6 1
-12z m3411 -35 c17 -21 139 -168 272 -328 282 -338 256 -267 194 -535 -14 -63
-28 -124 -29 -135 -2 -11 -31 -141 -64 -290 -34 -148 -63 -279 -66 -290 -2
-11 -6 -29 -9 -40 -7 -31 -37 -167 -42 -195 -3 -14 -10 -43 -15 -65 -5 -22
-12 -51 -15 -65 -48 -233 -63 -270 -105 -270 -9 0 -149 99 -310 221 -162 122
-322 242 -356 268 l-62 46 19 30 c37 61 147 283 194 390 26 61 52 119 56 130
78 177 193 540 225 705 2 12 6 29 9 38 3 9 7 35 11 57 3 22 7 47 10 55 2 8 6
35 9 60 3 25 8 55 10 67 5 23 19 149 19 171 0 21 13 14 45 -25z"/>
<path d="M3434 4531 c-119 -30 -206 -142 -205 -264 0 -206 211 -335 394 -242
58 29 115 94 136 154 16 49 14 142 -5 187 -41 97 -127 161 -230 169 -33 2 -73
1 -90 -4z"/>
<path d="M3015 1033 c-34 -9 -81 -50 -100 -89 -24 -51 -16 -122 18 -167 51
-68 40 -66 565 -66 451 -1 475 0 512 19 60 30 85 74 85 145 0 73 -27 118 -89
146 -38 17 -73 18 -506 18 -256 -1 -474 -4 -485 -6z"/>
</g>
</svg>
